<svg id="Layer_1" data-name="Layer 1" xmlns="http://www.w3.org/2000/svg" viewBox="0 0 512 512"><defs><style>.cls-1{fill:#141f38;}.cls-2{fill:#ff5f6e;}.cls-3{fill:#5ecaef;}</style></defs><title>cloud-data-filled</title><path class="cls-1" d="M216.62,52.51H190.36a6.56,6.56,0,1,1,0-13.13h26.26a6.56,6.56,0,1,1,0,13.13Z"/><path class="cls-1" d="M137.85,52.51H111.59a6.56,6.56,0,1,1,0-13.13h26.26a6.56,6.56,0,1,1,0,13.13Z"/><path class="cls-1" d="M111.59,78.77A6.56,6.56,0,0,1,105,72.21V45.95a6.56,6.56,0,0,1,13.13,0V72.21A6.56,6.56,0,0,1,111.59,78.77Z"/><path class="cls-1" d="M111.59,157.54A6.56,6.56,0,0,1,105,151V124.72a6.56,6.56,0,0,1,13.13,0V151A6.56,6.56,0,0,1,111.59,157.54Z"/><path class="cls-1" d="M111.59,236.31a6.56,6.56,0,0,1-6.56-6.56V203.49a6.56,6.56,0,1,1,13.13,0v26.26A6.56,6.56,0,0,1,111.59,236.31Z"/><path class="cls-1" d="M321.64,472.62H295.38a6.56,6.56,0,1,1,0-13.13h26.26a6.56,6.56,0,1,1,0,13.13Z"/><path class="cls-1" d="M400.41,472.62H374.15a6.56,6.56,0,1,1,0-13.13h26.26a6.56,6.56,0,1,1,0,13.13Z"/><path class="cls-1" d="M400.41,472.62a6.56,6.56,0,0,1-6.56-6.56V439.79a6.56,6.56,0,0,1,13.13,0v26.26A6.56,6.56,0,0,1,400.41,472.62Z"/><path class="cls-1" d="M400.41,393.85a6.56,6.56,0,0,1-6.56-6.56V361A6.56,6.56,0,0,1,407,361v26.26A6.56,6.56,0,0,1,400.41,393.85Z"/><path class="cls-1" d="M400.41,315.08a6.56,6.56,0,0,1-6.56-6.56V282.26a6.56,6.56,0,1,1,13.13,0v26.26A6.56,6.56,0,0,1,400.41,315.08Z"/><path class="cls-1" d="M400.41,236.31a6.56,6.56,0,0,1-6.56-6.56V203.49a6.56,6.56,0,0,1,13.13,0v26.26A6.56,6.56,0,0,1,400.41,236.31Z"/><path class="cls-1" d="M111.59,315.08a6.56,6.56,0,0,1-6.56-6.56V282.26a6.56,6.56,0,1,1,13.13,0v26.26A6.56,6.56,0,0,1,111.59,315.08Z"/><path class="cls-2" d="M196.92,505.44a45.95,45.95,0,1,0-20.28-87.13,65.6,65.6,0,0,0-129.42-4.44,45.94,45.94,0,0,0,5.3,91.57Z"/><path class="cls-1" d="M196.92,512H52.51A52.5,52.5,0,0,1,41.82,408.09a72.17,72.17,0,0,1,139.8,1.18,51.64,51.64,0,0,1,15.3-2.3,52.51,52.51,0,0,1,0,105ZM111.59,367.59a59.16,59.16,0,0,0-57.93,47.55A6.57,6.57,0,0,1,48,420.39a39.37,39.37,0,0,0,4.54,78.48H196.92a39.38,39.38,0,0,0,0-78.77,39,39,0,0,0-17.37,4.09,6.57,6.57,0,0,1-9.42-5.05A59.13,59.13,0,0,0,111.59,367.59Z"/><path class="cls-3" d="M459.49,151A45.95,45.95,0,1,0,439.2,63.84a65.6,65.6,0,0,0-129.42-4.44,45.94,45.94,0,0,0,5.3,91.57Z"/><path class="cls-1" d="M459.49,157.54H315.08A52.5,52.5,0,0,1,304.38,53.63a72.17,72.17,0,0,1,139.8,1.18,51.65,51.65,0,0,1,15.3-2.3,52.51,52.51,0,1,1,0,105ZM374.15,13.13a59.16,59.16,0,0,0-57.93,47.55,6.57,6.57,0,0,1-5.69,5.25,39.37,39.37,0,0,0,4.54,78.48H459.49a39.38,39.38,0,1,0,0-78.77,39,39,0,0,0-17.38,4.09,6.57,6.57,0,0,1-9.42-5.05A59.13,59.13,0,0,0,374.15,13.13Z"/></svg>